<svg width="72" height="72" viewBox="0 0 72 72" fill="none" xmlns="http://www.w3.org/2000/svg">
<path d="M30.375 0C28.4062 0 27 1.54688 27 3.375V27H14.625C12.0938 27 10.8281 30.0938 12.6562 31.9219L34.0312 53.2969C35.0156 54.2812 36.8438 54.2812 37.8281 53.2969L59.2031 31.9219C61.0312 30.0938 59.7656 27 57.2344 27H45V3.375C45 1.54688 43.4531 0 41.625 0H30.375ZM72 52.875C72 51.0469 70.4531 49.5 68.625 49.5H47.9531L41.0625 56.3906C38.25 59.3438 33.6094 59.3438 30.7969 56.3906L23.9062 49.5H3.375C1.40625 49.5 0 51.0469 0 52.875V68.625C0 70.5938 1.40625 72 3.375 72H68.625C70.4531 72 72 70.5938 72 68.625V52.875ZM54.5625 65.25C54.5625 66.7969 53.2969 68.0625 51.75 68.0625C50.2031 68.0625 48.9375 66.7969 48.9375 65.25C48.9375 63.7031 50.2031 62.4375 51.75 62.4375C53.2969 62.4375 54.5625 63.7031 54.5625 65.25ZM63.5625 65.25C63.5625 66.7969 62.2969 68.0625 60.75 68.0625C59.2031 68.0625 57.9375 66.7969 57.9375 65.25C57.9375 63.7031 59.2031 62.4375 60.75 62.4375C62.2969 62.4375 63.5625 63.7031 63.5625 65.25Z" fill="#DA3E89"/>
</svg>
