<svg width="21" height="22" viewBox="0 0 21 22" fill="none" xmlns="http://www.w3.org/2000/svg">
<path d="M19.3594 9.45312C18.8906 8.98438 18.1875 9.03125 17.7188 9.45312L12.375 15.125V1.625C12.375 1.01562 11.8594 0.5 11.25 0.5H9.75C9.09375 0.5 8.625 1.01562 8.625 1.625V15.125L3.23438 9.45312C2.76562 9.03125 2.0625 8.98438 1.59375 9.45312L0.5625 10.4844C0.140625 10.9062 0.140625 11.6562 0.5625 12.0781L9.70312 21.1719C10.125 21.6406 10.8281 21.6406 11.2969 21.1719L20.3906 12.0781C20.8125 11.6562 20.8125 10.9531 20.3906 10.4844L19.3594 9.45312Z" fill="black"/>
</svg>
