<svg width="34" height="37" viewBox="0 0 34 37" fill="none" xmlns="http://www.w3.org/2000/svg">
<path d="M32.5391 9.5C31.5547 7.8125 19.0391 0.5 17 0.5C14.9609 0.5 2.44531 7.74219 1.39062 9.5C0.40625 11.3281 0.40625 25.7422 1.39062 27.5C2.44531 29.3281 14.9609 36.5 17 36.5C19.0391 36.5 31.5547 29.3281 32.5391 27.5C33.5234 25.7422 33.5938 11.2578 32.5391 9.5ZM21.2188 29.6797C20.9375 29.6797 18.3359 27.1484 18.5469 26.9375C18.6172 26.8672 18.9688 26.8672 19.7422 26.7969C19.7422 24.9688 19.8125 22.0156 19.8125 20.75C19.8125 20.6094 19.8125 20.4688 19.8125 20.3281H14.1875C14.1875 20.8203 14.1172 22.8594 14.2578 25.4609C14.2578 25.7422 14.1875 25.8828 13.8359 25.8828C13.1328 25.8828 12.4297 25.8828 11.7266 25.8828C11.4453 25.8828 11.3047 25.7422 11.3047 25.4609C11.375 23.0703 11.5156 19.5547 11.3047 10.4844V10.2734C10.6016 10.2031 10.1797 10.2031 10.1094 10.1328C9.89844 9.92188 12.5 7.39062 12.7812 7.39062C13.0625 7.39062 15.6641 9.92188 15.5234 10.1328C15.4531 10.2031 14.9609 10.2031 14.3281 10.2734V10.4844C14.1172 12.3125 14.1875 16.1094 14.1172 17.8672H19.7422C19.7422 17.5859 19.8125 15.4766 19.6719 12.0312C19.6719 11.75 19.7422 11.6797 19.9531 11.6797C20.7969 11.6094 21.5703 11.6094 22.3438 11.6094C22.5547 11.6094 22.625 11.75 22.625 12.0312C22.4141 25.4609 22.625 24.5469 22.625 26.7969C23.1875 26.8672 23.75 26.8672 23.8203 26.9375C24.0312 27.1484 21.5 29.6797 21.2188 29.6797Z" fill="#7B17DF"/>
</svg>
