<svg width="32" height="33" viewBox="0 0 32 33" fill="none" xmlns="http://www.w3.org/2000/svg">
<path d="M29.25 0.75H2.17969C0.984375 0.75 0 1.80469 0 3.07031V30C0 31.2656 0.984375 32.25 2.17969 32.25H29.25C30.4453 32.25 31.5 31.2656 31.5 30V3.07031C31.5 1.80469 30.4453 0.75 29.25 0.75ZM9.49219 27.75H4.85156V12.7734H9.49219V27.75ZM7.17188 10.6641C5.625 10.6641 4.42969 9.46875 4.42969 7.99219C4.42969 6.51562 5.625 5.25 7.17188 5.25C8.64844 5.25 9.84375 6.51562 9.84375 7.99219C9.84375 9.46875 8.64844 10.6641 7.17188 10.6641ZM27 27.75H22.2891V20.4375C22.2891 18.75 22.2891 16.5 19.8984 16.5C17.4375 16.5 17.0859 18.3984 17.0859 20.3672V27.75H12.4453V12.7734H16.875V14.8125H16.9453C17.5781 13.6172 19.125 12.3516 21.375 12.3516C26.0859 12.3516 27 15.5156 27 19.5234V27.75Z" fill="#7B17DF"/>
</svg>
