<svg width="579" height="531" viewBox="0 0 579 531" fill="none" xmlns="http://www.w3.org/2000/svg">
<g filter="url(#filter0_b_47_16)">
<path d="M285 278C285 269.716 291.716 263 300 263H417C425.284 263 432 269.716 432 278V385C432 393.284 425.284 400 417 400H300C291.716 400 285 393.284 285 385V278Z" fill="#AF60A8" fill-opacity="0.58"/>
</g>
<rect x="140" y="131" width="147" height="137" rx="15" fill="#18116A"/>
<rect x="285" width="147" height="137" rx="15" fill="#AF60A8" fill-opacity="0.58"/>
<g filter="url(#filter1_b_47_16)">
<rect x="432" y="137" width="147" height="137" rx="15" fill="#7B17DF"/>
<rect x="432.5" y="137.5" width="146" height="136" rx="14.5" stroke="black"/>
</g>
<g filter="url(#filter2_b_47_16)">
<rect y="267" width="147" height="137" rx="15" fill="#7B17DF"/>
<rect x="0.5" y="267.5" width="146" height="136" rx="14.5" stroke="black"/>
</g>
<g filter="url(#filter3_b_47_16)">
<rect x="140" y="394" width="147" height="137" rx="15" fill="#18116A"/>
</g>
<defs>
<filter id="filter0_b_47_16" x="281" y="259" width="155" height="145" filterUnits="userSpaceOnUse" color-interpolation-filters="sRGB">
<feFlood flood-opacity="0" result="BackgroundImageFix"/>
<feGaussianBlur in="BackgroundImage" stdDeviation="2"/>
<feComposite in2="SourceAlpha" operator="in" result="effect1_backgroundBlur_47_16"/>
<feBlend mode="normal" in="SourceGraphic" in2="effect1_backgroundBlur_47_16" result="shape"/>
</filter>
<filter id="filter1_b_47_16" x="428" y="133" width="155" height="145" filterUnits="userSpaceOnUse" color-interpolation-filters="sRGB">
<feFlood flood-opacity="0" result="BackgroundImageFix"/>
<feGaussianBlur in="BackgroundImage" stdDeviation="2"/>
<feComposite in2="SourceAlpha" operator="in" result="effect1_backgroundBlur_47_16"/>
<feBlend mode="normal" in="SourceGraphic" in2="effect1_backgroundBlur_47_16" result="shape"/>
</filter>
<filter id="filter2_b_47_16" x="-4" y="263" width="155" height="145" filterUnits="userSpaceOnUse" color-interpolation-filters="sRGB">
<feFlood flood-opacity="0" result="BackgroundImageFix"/>
<feGaussianBlur in="BackgroundImage" stdDeviation="2"/>
<feComposite in2="SourceAlpha" operator="in" result="effect1_backgroundBlur_47_16"/>
<feBlend mode="normal" in="SourceGraphic" in2="effect1_backgroundBlur_47_16" result="shape"/>
</filter>
<filter id="filter3_b_47_16" x="136" y="390" width="155" height="145" filterUnits="userSpaceOnUse" color-interpolation-filters="sRGB">
<feFlood flood-opacity="0" result="BackgroundImageFix"/>
<feGaussianBlur in="BackgroundImage" stdDeviation="2"/>
<feComposite in2="SourceAlpha" operator="in" result="effect1_backgroundBlur_47_16"/>
<feBlend mode="normal" in="SourceGraphic" in2="effect1_backgroundBlur_47_16" result="shape"/>
</filter>
</defs>
</svg>
