<svg width="24" height="24" viewBox="0 0 24 24" fill="none" xmlns="http://www.w3.org/2000/svg">
<path d="M22.3594 6C21.7031 4.875 13.3594 0 12 0C10.6406 0 2.29688 4.82812 1.59375 6C0.9375 7.21875 0.9375 16.8281 1.59375 18C2.29688 19.2188 10.6406 24 12 24C13.3594 24 21.7031 19.2188 22.3594 18C23.0156 16.8281 23.0625 7.17188 22.3594 6ZM14.8125 19.4531C14.625 19.4531 12.8906 17.7656 13.0312 17.625C13.0781 17.5781 13.3125 17.5781 13.8281 17.5312C13.8281 16.3125 13.875 14.3438 13.875 13.5C13.875 13.4062 13.875 13.3125 13.875 13.2188H10.125C10.125 13.5469 10.0781 14.9062 10.1719 16.6406C10.1719 16.8281 10.125 16.9219 9.89062 16.9219C9.42188 16.9219 8.95312 16.9219 8.48438 16.9219C8.29688 16.9219 8.20312 16.8281 8.20312 16.6406C8.25 15.0469 8.34375 12.7031 8.20312 6.65625V6.51562C7.73438 6.46875 7.45312 6.46875 7.40625 6.42188C7.26562 6.28125 9 4.59375 9.1875 4.59375C9.375 4.59375 11.1094 6.28125 11.0156 6.42188C10.9688 6.46875 10.6406 6.46875 10.2188 6.51562V6.65625C10.0781 7.875 10.125 10.4062 10.0781 11.5781H13.8281C13.8281 11.3906 13.875 9.98438 13.7812 7.6875C13.7812 7.5 13.8281 7.45312 13.9688 7.45312C14.5312 7.40625 15.0469 7.40625 15.5625 7.40625C15.7031 7.40625 15.75 7.5 15.75 7.6875C15.6094 16.6406 15.75 16.0312 15.75 17.5312C16.125 17.5781 16.5 17.5781 16.5469 17.625C16.6875 17.7656 15 19.4531 14.8125 19.4531Z" fill="#2A53BC"/>
</svg>
