<svg width="60" height="65" viewBox="0 0 60 65" fill="none" xmlns="http://www.w3.org/2000/svg">
<path d="M40.625 39.125C41.875 38.375 43.625 37.625 43.625 37.625C43.625 37.625 38.75 38.5 33.875 38.875C28 39.375 21.75 39.5 18.5 39C11 38 22.625 35.25 22.625 35.25C22.625 35.25 18.125 35 12.625 37.625C6 40.875 28.875 42.25 40.625 39.125ZM30 35.125C27.625 29.875 19.625 25.125 30 16.875C43 6.75 36.25 0 36.25 0C39 10.625 26.875 13.875 22.5 20.375C19.5 24.875 23.875 29.625 30 35.125ZM44.25 13.125C44.375 13.125 22.375 18.625 32.875 30.625C36 34.25 32 37.375 32 37.375C32 37.375 39.875 33.375 36.25 28.25C32.875 23.625 30.375 21.25 44.25 13.125ZM43.5 47C43.5 47.125 43.375 47.125 43.25 47.25C59.375 43 53.375 32.375 45.75 35.125C45.375 35.25 45 35.5 44.75 35.875C45.125 35.75 45.625 35.625 46.125 35.5C50 34.75 55.5 40.75 43.5 47ZM49.5 54.75C49.5 54.75 51.25 56.25 47.5 57.375C40.25 59.625 17.375 60.25 11 57.5C8.75 56.5 13 55.125 14.375 54.75C15.75 54.5 16.625 54.5 16.625 54.5C14 52.75 0.125 58.125 9.5 59.625C35 63.75 56.125 57.75 49.5 54.75ZM21.5 49.5C11.625 52.25 27.5 58 40 52.625C38.75 52.125 37.625 51.625 36.5 50.875C30.875 52 28.25 52 23.25 51.5C19 51 21.5 49.5 21.5 49.5ZM44 61.75C34.125 63.5 22 63.375 14.75 62.125C14.75 62.125 16.25 63.375 23.875 63.875C35.375 64.625 53.125 63.5 53.5 58C53.5 58 52.75 60 44 61.75ZM38.5 44.125C31.125 45.625 26.875 45.625 21.375 45C17.25 44.625 20 42.5 20 42.5C9.125 46.125 26 50.25 41.125 45.75C40.125 45.5 39.25 44.875 38.5 44.125Z" fill="#DA3E89"/>
</svg>
