<svg width="56" height="56" viewBox="0 0 56 56" fill="none" xmlns="http://www.w3.org/2000/svg">
<path d="M0 0V56H56V0H0ZM30.375 43.75C30.375 49.125 27.25 51.625 22.5 51.625C18.375 51.625 15.875 49.5 14.625 46.875L19 44.25C19.75 45.75 20.5 47 22.375 47C24 47 25.125 46.25 25.125 43.625V25.75H30.375V43.75ZM42.875 51.625C38 51.625 34.875 49.375 33.25 46.25L37.625 43.875C38.75 45.625 40.125 47 42.75 47C44.875 47 46.375 45.875 46.375 44.375C46.375 42.625 44.875 42 42.5 40.875L41.125 40.375C37.375 38.75 34.875 36.75 34.875 32.375C34.875 28.5 37.875 25.5 42.625 25.5C45.875 25.5 48.375 26.625 50 29.625L46 32.25C45 30.75 44.125 30 42.5 30C41 30 40 31 40 32.25C40 33.875 41 34.5 43.25 35.5L44.625 36.125C49.125 38 51.625 40 51.625 44.375C51.625 49.125 47.875 51.625 42.875 51.625Z" fill="#DA3E89"/>
</svg>
