<svg width="64" height="60" viewBox="0 0 64 60" fill="none" xmlns="http://www.w3.org/2000/svg">
<path d="M52.25 20.25C51.5 20 50.875 19.75 50.25 19.625C50.25 19.125 50.375 18.625 50.5 18.125C52 10.75 51 4.75 47.625 2.75C44.375 0.875 39 2.875 33.5 7.625C33 8 32.5 8.5 32 9C31.625 8.625 31.25 8.375 31 8C25.25 3 19.5 0.875 16.125 2.875C12.875 4.75 11.875 10.375 13.25 17.5C13.375 18.125 13.5 18.875 13.75 19.5C12.875 19.75 12.125 20 11.375 20.25C4.75 22.625 0 26.25 0 30C0 33.875 5 37.875 12 40.25C12.5 40.375 13.125 40.625 13.625 40.75C13.5 41.5 13.375 42.25 13.125 43C11.875 49.875 12.875 55.375 16.125 57.25C19.5 59.25 25.25 57.25 30.75 52.375C31.125 52 31.625 51.625 32 51.25C32.625 51.75 33.125 52.25 33.75 52.75C39.125 57.375 44.375 59.25 47.625 57.375C51 55.375 52.125 49.5 50.75 42.25C50.625 41.75 50.5 41.125 50.375 40.625C50.75 40.5 51.125 40.375 51.5 40.25C58.75 37.875 64 34 64 30C64 26.25 59 22.5 52.25 20.25ZM35.25 9.625C40 5.5 44.25 4 46.25 5.125C48.375 6.25 49.25 11.25 47.875 17.625C47.75 18.125 47.75 18.5 47.625 18.875C44.75 18.25 42 17.875 39.125 17.625C37.5 15.25 35.75 13 33.875 10.875C34.375 10.5 34.75 10 35.25 9.625ZM20.875 36.5C21.5 37.625 22.125 38.625 22.875 39.75C20.875 39.5 18.875 39.25 17 38.75C17.625 37 18.25 35.125 19 33.25C19.625 34.375 20.25 35.375 20.875 36.5ZM17 21.5C18.875 21 20.75 20.75 22.75 20.5C22.125 21.5 21.5 22.625 20.875 23.625C20.25 24.75 19.625 25.75 19 26.875C18.25 25 17.625 23.25 17 21.5ZM20.5 30.125C21.25 28.375 22.25 26.625 23.125 25C24.125 23.375 25.125 21.75 26.25 20.125C28.125 20 30 19.875 32 19.875C33.875 19.875 35.875 20 37.625 20.125C38.75 21.75 39.75 23.375 40.75 25C41.625 26.625 42.625 28.25 43.375 30C42.625 31.75 41.75 33.5 40.75 35.125C39.75 36.75 38.75 38.375 37.75 40C35.875 40.125 33.875 40.25 32 40.25C30 40.25 28.125 40.125 26.25 40C25.125 38.375 24.125 36.75 23.125 35.125C22.25 33.5 21.375 31.75 20.5 30.125ZM43 36.5C43.75 35.375 44.25 34.25 44.875 33.125C45.625 35 46.375 36.75 47 38.625C45 39.125 43.125 39.5 41.125 39.625C41.75 38.625 42.375 37.5 43 36.5ZM44.875 26.875C44.25 25.75 43.625 24.75 43 23.625C42.375 22.625 41.75 21.5 41.125 20.5C43.125 20.75 45.125 21.125 46.875 21.5C46.25 23.375 45.625 25.125 44.875 26.875ZM32 12.875C33.25 14.25 34.5 15.75 35.625 17.375C33.25 17.25 30.75 17.25 28.25 17.375C29.5 15.75 30.75 14.25 32 12.875ZM17.5 5.125C19.625 4 24.25 5.75 29.125 10C29.5 10.375 29.75 10.625 30.125 10.875C28.125 13 26.375 15.25 24.75 17.625C21.875 17.875 19.125 18.25 16.375 18.875C16.125 18.25 16 17.625 15.875 16.875C14.75 10.875 15.5 6.375 17.5 5.125ZM14.375 38.125C13.875 38 13.375 37.875 12.875 37.625C10.25 36.75 7.125 35.5 5 33.75C3.75 32.875 2.875 31.5 2.625 30C2.625 27.75 6.625 24.75 12.25 22.75C13 22.5 13.75 22.375 14.5 22.125C15.25 24.875 16.375 27.5 17.5 30.125C16.25 32.625 15.25 35.375 14.375 38.125ZM29 50.375C26.875 52.25 24.5 53.75 21.875 54.75C20.5 55.5 19 55.5 17.5 55C15.5 53.75 14.75 49.375 15.875 43.5C16 42.75 16.125 42 16.25 41.375C19.125 42 21.875 42.375 24.75 42.625C26.375 44.875 28.25 47.125 30.125 49.25C29.75 49.625 29.375 50 29 50.375ZM32 47.375C30.75 46 29.5 44.5 28.25 42.75C29.5 42.875 30.75 42.875 32 42.875C33.25 42.875 34.5 42.875 35.75 42.75C34.625 44.375 33.375 45.875 32 47.375ZM48.375 51.125C48.25 52.625 47.5 54 46.375 55C44.375 56.125 40.125 54.625 35.5 50.75C35 50.25 34.5 49.75 33.875 49.25C35.875 47.125 37.625 45 39.25 42.625C42.125 42.375 44.875 41.875 47.75 41.25C47.875 41.75 48 42.25 48.125 42.75C48.625 45.5 48.75 48.375 48.375 51.125ZM50.625 37.625C50.25 37.75 50 37.875 49.625 38C48.75 35.25 47.625 32.625 46.375 30C47.625 27.5 48.625 24.875 49.5 22.125C50.125 22.375 50.75 22.5 51.375 22.75C57.125 24.75 61.25 27.75 61.25 30C61.25 32.375 56.875 35.625 50.625 37.625ZM32 35.75C35.125 35.75 37.625 33.25 37.625 30C37.625 26.875 35.125 24.375 32 24.375C28.75 24.375 26.25 26.875 26.25 30C26.25 33.25 28.75 35.75 32 35.75Z" fill="#DA3E89"/>
</svg>
