<svg width="77" height="67" viewBox="0 0 77 67" fill="none" xmlns="http://www.w3.org/2000/svg">
<g filter="url(#filter0_d_3_6)">
<path d="M64.75 5.875C57.875 0 47.75 1.125 41.375 7.625L39 10.125L36.5 7.625C30.25 1.125 20 0 13.125 5.875C5.25 12.625 4.875 24.625 11.875 31.875L36.125 56.875C37.625 58.5 40.25 58.5 41.75 56.875L66 31.875C73 24.625 72.625 12.625 64.75 5.875Z" fill="#F62424"/>
<path d="M64.75 5.875L65.4008 5.11574L65.3997 5.11477L64.75 5.875ZM41.375 7.625L40.6611 6.92479L40.6555 6.93048L40.65 6.93625L41.375 7.625ZM39 10.125L38.2929 10.8321L39.0184 11.5576L39.725 10.8137L39 10.125ZM36.5 7.625L35.7792 8.31811L35.786 8.32518L35.7929 8.33211L36.5 7.625ZM13.125 5.875L12.4753 5.11477L12.4742 5.11574L13.125 5.875ZM11.875 31.875L11.1556 32.5696L11.1572 32.5713L11.875 31.875ZM36.125 56.875L36.8598 56.1967L36.8514 56.1876L36.8428 56.1787L36.125 56.875ZM41.75 56.875L41.0322 56.1787L41.0236 56.1876L41.0152 56.1967L41.75 56.875ZM66 31.875L66.7178 32.5713L66.7194 32.5696L66 31.875ZM65.3997 5.11477C58.0686 -1.14996 47.3498 0.104875 40.6611 6.92479L42.0889 8.32521C48.1502 2.14513 57.6814 1.14996 64.1003 6.63523L65.3997 5.11477ZM40.65 6.93625L38.275 9.43625L39.725 10.8137L42.1 8.31375L40.65 6.93625ZM39.7071 9.41789L37.2071 6.91789L35.7929 8.33211L38.2929 10.8321L39.7071 9.41789ZM37.2208 6.93189C30.6509 0.0991453 19.8026 -1.14667 12.4753 5.11477L13.7747 6.63523C20.1974 1.14667 29.8491 2.15085 35.7792 8.31811L37.2208 6.93189ZM12.4742 5.11574C4.1557 12.2459 3.7618 24.9117 11.1556 32.5696L12.5944 31.1804C5.9882 24.3383 6.3443 13.0041 13.7758 6.63426L12.4742 5.11574ZM11.1572 32.5713L35.4072 57.5713L36.8428 56.1787L12.5928 31.1787L11.1572 32.5713ZM35.3902 57.5533C37.2862 59.6072 40.5888 59.6072 42.4848 57.5533L41.0152 56.1967C39.9112 57.3928 37.9638 57.3928 36.8598 56.1967L35.3902 57.5533ZM42.4678 57.5713L66.7178 32.5713L65.2822 31.1787L41.0322 56.1787L42.4678 57.5713ZM66.7194 32.5696C74.1132 24.9117 73.7193 12.2459 65.4008 5.11574L64.0992 6.63426C71.5307 13.0041 71.8868 24.3383 65.2806 31.1804L66.7194 32.5696Z" fill="#F62424"/>
</g>
<defs>
<filter id="filter0_d_3_6" x="0.875" y="0" width="76.125" height="66.5" filterUnits="userSpaceOnUse" color-interpolation-filters="sRGB">
<feFlood flood-opacity="0" result="BackgroundImageFix"/>
<feColorMatrix in="SourceAlpha" type="matrix" values="0 0 0 0 0 0 0 0 0 0 0 0 0 0 0 0 0 0 127 0" result="hardAlpha"/>
<feOffset dy="4"/>
<feGaussianBlur stdDeviation="2"/>
<feComposite in2="hardAlpha" operator="out"/>
<feColorMatrix type="matrix" values="0 0 0 0 0 0 0 0 0 0 0 0 0 0 0 0 0 0 0.25 0"/>
<feBlend mode="normal" in2="BackgroundImageFix" result="effect1_dropShadow_3_6"/>
<feBlend mode="normal" in="SourceGraphic" in2="effect1_dropShadow_3_6" result="shape"/>
</filter>
</defs>
</svg>
