<svg width="70" height="59" viewBox="0 0 70 59" fill="none" xmlns="http://www.w3.org/2000/svg">
<path d="M60.25 6.125C53 0 41.875 0.875 35 8C28 0.875 16.875 0 9.625 6.125C0.25 14 1.625 26.875 8.375 33.75L30.25 56.125C31.5 57.375 33.125 58.125 35 58.125C36.75 58.125 38.375 57.375 39.625 56.125L61.625 33.75C68.25 26.875 69.625 14 60.25 6.125ZM57.25 29.5L35.375 51.875C35.125 52.125 34.875 52.125 34.5 51.875L12.625 29.5C8 24.875 7.125 16.125 13.5 10.75C18.375 6.625 25.875 7.25 30.625 12L35 16.5L39.375 12C44 7.25 51.5 6.625 56.375 10.625C62.75 16.125 61.875 24.875 57.25 29.5Z" fill="white"/>
</svg>
